<mxfile host="app.diagrams.net" modified="2022-12-12T08:25:23.042Z" agent="5.0 (Windows NT 10.0; Win64; x64) AppleWebKit/537.36 (KHTML, like Gecko) Chrome/108.0.0.0 Safari/537.36 Edg/108.0.1462.46" version="20.6.2" etag="6xj5WEaWlvHst0YACmeo" type="github">
  <diagram id="chHP2OcVLv3mCMl7LLj-" name="第 1 页">
    <mxGraphModel dx="1114" dy="1657" grid="1" gridSize="10" guides="1" tooltips="1" connect="1" arrows="1" fold="1" page="1" pageScale="1" pageWidth="827" pageHeight="1169" math="0" shadow="0">
      <root>
        <mxCell id="0" />
        <mxCell id="1" parent="0" />
        <mxCell id="MektMNyVy06ucEfF7UAV-1" value="grp73 pipeline cpu" style="whiteSpace=wrap;html=1;aspect=fixed;" vertex="1" parent="1">
          <mxGeometry x="264" y="210" width="300" height="300" as="geometry" />
        </mxCell>
        <mxCell id="MektMNyVy06ucEfF7UAV-3" style="edgeStyle=orthogonalEdgeStyle;rounded=0;orthogonalLoop=1;jettySize=auto;html=1;exitX=1;exitY=0.5;exitDx=0;exitDy=0;entryX=0;entryY=0.25;entryDx=0;entryDy=0;" edge="1" parent="1" source="MektMNyVy06ucEfF7UAV-2" target="MektMNyVy06ucEfF7UAV-1">
          <mxGeometry relative="1" as="geometry">
            <Array as="points">
              <mxPoint x="235" y="80" />
              <mxPoint x="235" y="285" />
            </Array>
          </mxGeometry>
        </mxCell>
        <mxCell id="MektMNyVy06ucEfF7UAV-2" value="clk_50M" style="rounded=0;whiteSpace=wrap;html=1;" vertex="1" parent="1">
          <mxGeometry x="60" y="50" width="120" height="60" as="geometry" />
        </mxCell>
        <mxCell id="MektMNyVy06ucEfF7UAV-5" style="edgeStyle=orthogonalEdgeStyle;rounded=0;orthogonalLoop=1;jettySize=auto;html=1;exitX=1;exitY=0.5;exitDx=0;exitDy=0;entryX=0.003;entryY=0.39;entryDx=0;entryDy=0;entryPerimeter=0;" edge="1" parent="1" source="MektMNyVy06ucEfF7UAV-4" target="MektMNyVy06ucEfF7UAV-1">
          <mxGeometry relative="1" as="geometry" />
        </mxCell>
        <mxCell id="MektMNyVy06ucEfF7UAV-4" value="rst_btn" style="rounded=0;whiteSpace=wrap;html=1;" vertex="1" parent="1">
          <mxGeometry x="40" y="170" width="120" height="60" as="geometry" />
        </mxCell>
        <mxCell id="MektMNyVy06ucEfF7UAV-19" value="BaseRAM" style="whiteSpace=wrap;html=1;aspect=fixed;" vertex="1" parent="1">
          <mxGeometry x="75" y="610" width="230" height="230" as="geometry" />
        </mxCell>
        <mxCell id="MektMNyVy06ucEfF7UAV-21" value="base ram data" style="text;html=1;align=center;verticalAlign=middle;resizable=0;points=[];autosize=1;strokeColor=none;fillColor=none;" vertex="1" parent="1">
          <mxGeometry x="110" y="520" width="100" height="30" as="geometry" />
        </mxCell>
        <mxCell id="MektMNyVy06ucEfF7UAV-22" value="" style="endArrow=classic;startArrow=classic;html=1;rounded=0;entryX=0.133;entryY=1.003;entryDx=0;entryDy=0;entryPerimeter=0;exitX=0.174;exitY=0;exitDx=0;exitDy=0;exitPerimeter=0;" edge="1" parent="1" source="MektMNyVy06ucEfF7UAV-19" target="MektMNyVy06ucEfF7UAV-1">
          <mxGeometry width="50" height="50" relative="1" as="geometry">
            <mxPoint x="304" y="550" as="sourcePoint" />
            <mxPoint x="360" y="570" as="targetPoint" />
            <Array as="points">
              <mxPoint x="115" y="550" />
              <mxPoint x="304" y="550" />
            </Array>
          </mxGeometry>
        </mxCell>
        <mxCell id="MektMNyVy06ucEfF7UAV-23" value="" style="endArrow=classic;html=1;rounded=0;exitX=0.25;exitY=1;exitDx=0;exitDy=0;entryX=0.343;entryY=-0.009;entryDx=0;entryDy=0;entryPerimeter=0;" edge="1" parent="1" source="MektMNyVy06ucEfF7UAV-1" target="MektMNyVy06ucEfF7UAV-19">
          <mxGeometry width="50" height="50" relative="1" as="geometry">
            <mxPoint x="400" y="540" as="sourcePoint" />
            <mxPoint x="340" y="570" as="targetPoint" />
            <Array as="points">
              <mxPoint x="340" y="570" />
              <mxPoint x="154" y="570" />
            </Array>
          </mxGeometry>
        </mxCell>
        <mxCell id="MektMNyVy06ucEfF7UAV-24" value="base ram addr" style="text;html=1;align=center;verticalAlign=middle;resizable=0;points=[];autosize=1;strokeColor=none;fillColor=none;" vertex="1" parent="1">
          <mxGeometry x="180" y="545" width="100" height="30" as="geometry" />
        </mxCell>
        <mxCell id="MektMNyVy06ucEfF7UAV-25" value="" style="endArrow=classic;html=1;rounded=0;entryX=0.5;entryY=0;entryDx=0;entryDy=0;" edge="1" parent="1" target="MektMNyVy06ucEfF7UAV-19">
          <mxGeometry width="50" height="50" relative="1" as="geometry">
            <mxPoint x="360" y="510" as="sourcePoint" />
            <mxPoint x="450" y="490" as="targetPoint" />
            <Array as="points">
              <mxPoint x="360" y="580" />
              <mxPoint x="190" y="580" />
            </Array>
          </mxGeometry>
        </mxCell>
        <mxCell id="MektMNyVy06ucEfF7UAV-28" value="base ram be n" style="text;html=1;align=center;verticalAlign=middle;resizable=0;points=[];autosize=1;strokeColor=none;fillColor=none;" vertex="1" parent="1">
          <mxGeometry x="210" y="575" width="100" height="30" as="geometry" />
        </mxCell>
        <mxCell id="MektMNyVy06ucEfF7UAV-29" value="" style="endArrow=classic;html=1;rounded=0;exitX=0.373;exitY=1.003;exitDx=0;exitDy=0;exitPerimeter=0;entryX=1.009;entryY=0.174;entryDx=0;entryDy=0;entryPerimeter=0;" edge="1" parent="1" source="MektMNyVy06ucEfF7UAV-1" target="MektMNyVy06ucEfF7UAV-19">
          <mxGeometry width="50" height="50" relative="1" as="geometry">
            <mxPoint x="370" y="560" as="sourcePoint" />
            <mxPoint x="420" y="510" as="targetPoint" />
            <Array as="points">
              <mxPoint x="376" y="650" />
            </Array>
          </mxGeometry>
        </mxCell>
        <mxCell id="MektMNyVy06ucEfF7UAV-30" value="base ram ce n" style="text;html=1;align=center;verticalAlign=middle;resizable=0;points=[];autosize=1;strokeColor=none;fillColor=none;" vertex="1" parent="1">
          <mxGeometry x="290" y="615" width="100" height="30" as="geometry" />
        </mxCell>
        <mxCell id="MektMNyVy06ucEfF7UAV-32" value="base ram we n" style="text;html=1;align=center;verticalAlign=middle;resizable=0;points=[];autosize=1;strokeColor=none;fillColor=none;" vertex="1" parent="1">
          <mxGeometry x="305" y="690" width="100" height="30" as="geometry" />
        </mxCell>
        <mxCell id="MektMNyVy06ucEfF7UAV-33" value="" style="endArrow=classic;html=1;rounded=0;exitX=0.427;exitY=1;exitDx=0;exitDy=0;exitPerimeter=0;entryX=1;entryY=0.25;entryDx=0;entryDy=0;" edge="1" parent="1" source="MektMNyVy06ucEfF7UAV-1" target="MektMNyVy06ucEfF7UAV-19">
          <mxGeometry width="50" height="50" relative="1" as="geometry">
            <mxPoint x="400" y="540" as="sourcePoint" />
            <mxPoint x="450" y="490" as="targetPoint" />
            <Array as="points">
              <mxPoint x="392" y="668" />
            </Array>
          </mxGeometry>
        </mxCell>
        <mxCell id="MektMNyVy06ucEfF7UAV-34" value="" style="endArrow=classic;html=1;rounded=0;entryX=1.009;entryY=0.448;entryDx=0;entryDy=0;entryPerimeter=0;" edge="1" parent="1" source="MektMNyVy06ucEfF7UAV-1" target="MektMNyVy06ucEfF7UAV-19">
          <mxGeometry width="50" height="50" relative="1" as="geometry">
            <mxPoint x="400" y="540" as="sourcePoint" />
            <mxPoint x="450" y="490" as="targetPoint" />
            <Array as="points">
              <mxPoint x="406" y="713" />
            </Array>
          </mxGeometry>
        </mxCell>
        <mxCell id="MektMNyVy06ucEfF7UAV-35" value="base ram oe n" style="text;html=1;align=center;verticalAlign=middle;resizable=0;points=[];autosize=1;strokeColor=none;fillColor=none;" vertex="1" parent="1">
          <mxGeometry x="300" y="645" width="100" height="30" as="geometry" />
        </mxCell>
        <mxCell id="MektMNyVy06ucEfF7UAV-52" value="EXT RAM" style="whiteSpace=wrap;html=1;aspect=fixed;" vertex="1" parent="1">
          <mxGeometry x="455" y="605" width="230" height="230" as="geometry" />
        </mxCell>
        <mxCell id="MektMNyVy06ucEfF7UAV-55" value="ext ram data" style="text;html=1;align=center;verticalAlign=middle;resizable=0;points=[];autosize=1;strokeColor=none;fillColor=none;" vertex="1" parent="1">
          <mxGeometry x="380" y="535" width="90" height="30" as="geometry" />
        </mxCell>
        <mxCell id="MektMNyVy06ucEfF7UAV-56" value="" style="endArrow=classic;html=1;rounded=0;exitX=0.862;exitY=1.003;exitDx=0;exitDy=0;exitPerimeter=0;entryX=0.142;entryY=-0.007;entryDx=0;entryDy=0;entryPerimeter=0;" edge="1" parent="1" target="MektMNyVy06ucEfF7UAV-52">
          <mxGeometry width="50" height="50" relative="1" as="geometry">
            <mxPoint x="487.5999999999999" y="510.89999999999986" as="sourcePoint" />
            <mxPoint x="485" y="480" as="targetPoint" />
          </mxGeometry>
        </mxCell>
        <mxCell id="MektMNyVy06ucEfF7UAV-57" value="ext ram addr" style="text;html=1;align=center;verticalAlign=middle;resizable=0;points=[];autosize=1;strokeColor=none;fillColor=none;" vertex="1" parent="1">
          <mxGeometry x="440" y="490" width="90" height="30" as="geometry" />
        </mxCell>
        <mxCell id="MektMNyVy06ucEfF7UAV-58" value="" style="endArrow=classic;html=1;rounded=0;exitX=0.922;exitY=0.997;exitDx=0;exitDy=0;exitPerimeter=0;entryX=0.445;entryY=-0.001;entryDx=0;entryDy=0;entryPerimeter=0;" edge="1" parent="1" target="MektMNyVy06ucEfF7UAV-52">
          <mxGeometry width="50" height="50" relative="1" as="geometry">
            <mxPoint x="505.5999999999999" y="509.0999999999999" as="sourcePoint" />
            <mxPoint x="485" y="480" as="targetPoint" />
            <Array as="points">
              <mxPoint x="507" y="580" />
              <mxPoint x="557" y="580" />
            </Array>
          </mxGeometry>
        </mxCell>
        <mxCell id="MektMNyVy06ucEfF7UAV-59" value="ext ram be n" style="text;html=1;align=center;verticalAlign=middle;resizable=0;points=[];autosize=1;strokeColor=none;fillColor=none;" vertex="1" parent="1">
          <mxGeometry x="490" y="555" width="90" height="30" as="geometry" />
        </mxCell>
        <mxCell id="MektMNyVy06ucEfF7UAV-61" value="" style="endArrow=classic;startArrow=classic;html=1;rounded=0;exitX=0.809;exitY=1.013;exitDx=0;exitDy=0;exitPerimeter=0;entryX=0.073;entryY=0.002;entryDx=0;entryDy=0;entryPerimeter=0;" edge="1" parent="1">
          <mxGeometry width="50" height="50" relative="1" as="geometry">
            <mxPoint x="471.6999999999998" y="514.2200000000001" as="sourcePoint" />
            <mxPoint x="471.78999999999996" y="605.7800000000001" as="targetPoint" />
          </mxGeometry>
        </mxCell>
        <mxCell id="MektMNyVy06ucEfF7UAV-62" value="" style="endArrow=classic;html=1;rounded=0;exitX=0.869;exitY=1.001;exitDx=0;exitDy=0;exitPerimeter=0;entryX=0.591;entryY=0.002;entryDx=0;entryDy=0;entryPerimeter=0;" edge="1" parent="1" source="MektMNyVy06ucEfF7UAV-1" target="MektMNyVy06ucEfF7UAV-52">
          <mxGeometry width="50" height="50" relative="1" as="geometry">
            <mxPoint x="470" y="530" as="sourcePoint" />
            <mxPoint x="520" y="480" as="targetPoint" />
            <Array as="points">
              <mxPoint x="525" y="550" />
              <mxPoint x="590" y="550" />
            </Array>
          </mxGeometry>
        </mxCell>
        <mxCell id="MektMNyVy06ucEfF7UAV-63" value="ext ram ce n" style="text;html=1;align=center;verticalAlign=middle;resizable=0;points=[];autosize=1;strokeColor=none;fillColor=none;" vertex="1" parent="1">
          <mxGeometry x="535" y="525" width="90" height="30" as="geometry" />
        </mxCell>
        <mxCell id="MektMNyVy06ucEfF7UAV-64" value="" style="endArrow=classic;html=1;rounded=0;exitX=0.92;exitY=0.999;exitDx=0;exitDy=0;exitPerimeter=0;entryX=0.804;entryY=0.002;entryDx=0;entryDy=0;entryPerimeter=0;" edge="1" parent="1" source="MektMNyVy06ucEfF7UAV-1" target="MektMNyVy06ucEfF7UAV-52">
          <mxGeometry width="50" height="50" relative="1" as="geometry">
            <mxPoint x="630" y="550" as="sourcePoint" />
            <mxPoint x="640" y="600" as="targetPoint" />
            <Array as="points">
              <mxPoint x="540" y="560" />
              <mxPoint x="640" y="560" />
            </Array>
          </mxGeometry>
        </mxCell>
        <mxCell id="MektMNyVy06ucEfF7UAV-65" value="ext ram oe n" style="text;html=1;align=center;verticalAlign=middle;resizable=0;points=[];autosize=1;strokeColor=none;fillColor=none;" vertex="1" parent="1">
          <mxGeometry x="595" y="535" width="90" height="30" as="geometry" />
        </mxCell>
        <mxCell id="MektMNyVy06ucEfF7UAV-66" value="" style="endArrow=classic;html=1;rounded=0;exitX=0.963;exitY=1.003;exitDx=0;exitDy=0;exitPerimeter=0;entryX=0.948;entryY=0.002;entryDx=0;entryDy=0;entryPerimeter=0;" edge="1" parent="1" source="MektMNyVy06ucEfF7UAV-1" target="MektMNyVy06ucEfF7UAV-52">
          <mxGeometry width="50" height="50" relative="1" as="geometry">
            <mxPoint x="470" y="530" as="sourcePoint" />
            <mxPoint x="520" y="480" as="targetPoint" />
            <Array as="points">
              <mxPoint x="553" y="530" />
              <mxPoint x="674" y="530" />
            </Array>
          </mxGeometry>
        </mxCell>
        <mxCell id="MektMNyVy06ucEfF7UAV-67" value="ext ram we n" style="text;html=1;align=center;verticalAlign=middle;resizable=0;points=[];autosize=1;strokeColor=none;fillColor=none;" vertex="1" parent="1">
          <mxGeometry x="605" y="505" width="90" height="30" as="geometry" />
        </mxCell>
        <mxCell id="MektMNyVy06ucEfF7UAV-68" value="VGA" style="rounded=0;whiteSpace=wrap;html=1;" vertex="1" parent="1">
          <mxGeometry x="660" y="250" width="130" height="190" as="geometry" />
        </mxCell>
        <mxCell id="MektMNyVy06ucEfF7UAV-69" value="" style="endArrow=classic;html=1;rounded=0;entryX=0;entryY=0.25;entryDx=0;entryDy=0;exitX=1.009;exitY=0.293;exitDx=0;exitDy=0;exitPerimeter=0;" edge="1" parent="1" source="MektMNyVy06ucEfF7UAV-1" target="MektMNyVy06ucEfF7UAV-68">
          <mxGeometry width="50" height="50" relative="1" as="geometry">
            <mxPoint x="540" y="440" as="sourcePoint" />
            <mxPoint x="590" y="390" as="targetPoint" />
          </mxGeometry>
        </mxCell>
        <mxCell id="MektMNyVy06ucEfF7UAV-70" value="" style="endArrow=classic;html=1;rounded=0;entryX=0;entryY=0.25;entryDx=0;entryDy=0;exitX=1.009;exitY=0.293;exitDx=0;exitDy=0;exitPerimeter=0;" edge="1" parent="1">
          <mxGeometry width="50" height="50" relative="1" as="geometry">
            <mxPoint x="564" y="320.39999999999986" as="sourcePoint" />
            <mxPoint x="657.3" y="320" as="targetPoint" />
          </mxGeometry>
        </mxCell>
        <mxCell id="MektMNyVy06ucEfF7UAV-71" value="" style="endArrow=classic;html=1;rounded=0;entryX=0;entryY=0.25;entryDx=0;entryDy=0;exitX=1.009;exitY=0.293;exitDx=0;exitDy=0;exitPerimeter=0;" edge="1" parent="1">
          <mxGeometry width="50" height="50" relative="1" as="geometry">
            <mxPoint x="564" y="344.97999999999985" as="sourcePoint" />
            <mxPoint x="657.3" y="344.58" as="targetPoint" />
          </mxGeometry>
        </mxCell>
        <mxCell id="MektMNyVy06ucEfF7UAV-72" value="" style="endArrow=classic;html=1;rounded=0;entryX=0;entryY=0.25;entryDx=0;entryDy=0;exitX=1.009;exitY=0.293;exitDx=0;exitDy=0;exitPerimeter=0;" edge="1" parent="1">
          <mxGeometry width="50" height="50" relative="1" as="geometry">
            <mxPoint x="564" y="370.39999999999986" as="sourcePoint" />
            <mxPoint x="657.3" y="370" as="targetPoint" />
          </mxGeometry>
        </mxCell>
        <mxCell id="MektMNyVy06ucEfF7UAV-73" value="" style="endArrow=classic;html=1;rounded=0;entryX=0;entryY=0.25;entryDx=0;entryDy=0;exitX=1.009;exitY=0.293;exitDx=0;exitDy=0;exitPerimeter=0;" edge="1" parent="1">
          <mxGeometry width="50" height="50" relative="1" as="geometry">
            <mxPoint x="566.7" y="400.39999999999986" as="sourcePoint" />
            <mxPoint x="660" y="400" as="targetPoint" />
          </mxGeometry>
        </mxCell>
        <mxCell id="MektMNyVy06ucEfF7UAV-74" value="" style="endArrow=classic;html=1;rounded=0;entryX=0;entryY=0.25;entryDx=0;entryDy=0;exitX=1.009;exitY=0.293;exitDx=0;exitDy=0;exitPerimeter=0;" edge="1" parent="1">
          <mxGeometry width="50" height="50" relative="1" as="geometry">
            <mxPoint x="566.7" y="430.39999999999986" as="sourcePoint" />
            <mxPoint x="660" y="430" as="targetPoint" />
          </mxGeometry>
        </mxCell>
        <mxCell id="MektMNyVy06ucEfF7UAV-75" value="" style="endArrow=classic;html=1;rounded=0;entryX=0;entryY=0.25;entryDx=0;entryDy=0;exitX=1.009;exitY=0.293;exitDx=0;exitDy=0;exitPerimeter=0;" edge="1" parent="1">
          <mxGeometry width="50" height="50" relative="1" as="geometry">
            <mxPoint x="566.7" y="270.39999999999986" as="sourcePoint" />
            <mxPoint x="660" y="270" as="targetPoint" />
          </mxGeometry>
        </mxCell>
        <mxCell id="MektMNyVy06ucEfF7UAV-76" value="red" style="text;html=1;align=center;verticalAlign=middle;resizable=0;points=[];autosize=1;strokeColor=none;fillColor=none;" vertex="1" parent="1">
          <mxGeometry x="595" y="240" width="40" height="30" as="geometry" />
        </mxCell>
        <mxCell id="MektMNyVy06ucEfF7UAV-77" value="green" style="text;html=1;align=center;verticalAlign=middle;resizable=0;points=[];autosize=1;strokeColor=none;fillColor=none;" vertex="1" parent="1">
          <mxGeometry x="590" y="275" width="50" height="30" as="geometry" />
        </mxCell>
        <mxCell id="MektMNyVy06ucEfF7UAV-78" value="blue" style="text;html=1;align=center;verticalAlign=middle;resizable=0;points=[];autosize=1;strokeColor=none;fillColor=none;" vertex="1" parent="1">
          <mxGeometry x="585" y="295" width="50" height="30" as="geometry" />
        </mxCell>
        <mxCell id="MektMNyVy06ucEfF7UAV-79" value="hsync" style="text;html=1;align=center;verticalAlign=middle;resizable=0;points=[];autosize=1;strokeColor=none;fillColor=none;" vertex="1" parent="1">
          <mxGeometry x="585" y="325" width="50" height="30" as="geometry" />
        </mxCell>
        <mxCell id="MektMNyVy06ucEfF7UAV-80" value="vsync" style="text;html=1;align=center;verticalAlign=middle;resizable=0;points=[];autosize=1;strokeColor=none;fillColor=none;" vertex="1" parent="1">
          <mxGeometry x="585" y="345" width="50" height="30" as="geometry" />
        </mxCell>
        <mxCell id="MektMNyVy06ucEfF7UAV-81" value="clk" style="text;html=1;align=center;verticalAlign=middle;resizable=0;points=[];autosize=1;strokeColor=none;fillColor=none;" vertex="1" parent="1">
          <mxGeometry x="590" y="375" width="40" height="30" as="geometry" />
        </mxCell>
        <mxCell id="MektMNyVy06ucEfF7UAV-82" value="de" style="text;html=1;align=center;verticalAlign=middle;resizable=0;points=[];autosize=1;strokeColor=none;fillColor=none;" vertex="1" parent="1">
          <mxGeometry x="590" y="405" width="40" height="30" as="geometry" />
        </mxCell>
        <mxCell id="MektMNyVy06ucEfF7UAV-83" value="UART" style="rounded=0;whiteSpace=wrap;html=1;" vertex="1" parent="1">
          <mxGeometry x="340" y="40" width="170" height="50" as="geometry" />
        </mxCell>
        <mxCell id="MektMNyVy06ucEfF7UAV-84" value="" style="endArrow=classic;html=1;rounded=0;exitX=0.442;exitY=0;exitDx=0;exitDy=0;exitPerimeter=0;entryX=0.333;entryY=1.017;entryDx=0;entryDy=0;entryPerimeter=0;" edge="1" parent="1" source="MektMNyVy06ucEfF7UAV-1" target="MektMNyVy06ucEfF7UAV-83">
          <mxGeometry width="50" height="50" relative="1" as="geometry">
            <mxPoint x="450" y="350" as="sourcePoint" />
            <mxPoint x="500" y="300" as="targetPoint" />
          </mxGeometry>
        </mxCell>
        <mxCell id="MektMNyVy06ucEfF7UAV-85" value="txd" style="text;html=1;align=center;verticalAlign=middle;resizable=0;points=[];autosize=1;strokeColor=none;fillColor=none;" vertex="1" parent="1">
          <mxGeometry x="350" y="120" width="40" height="30" as="geometry" />
        </mxCell>
        <mxCell id="MektMNyVy06ucEfF7UAV-86" value="" style="endArrow=classic;html=1;rounded=0;exitX=0.618;exitY=1.017;exitDx=0;exitDy=0;exitPerimeter=0;entryX=0.612;entryY=-0.001;entryDx=0;entryDy=0;entryPerimeter=0;" edge="1" parent="1" source="MektMNyVy06ucEfF7UAV-83" target="MektMNyVy06ucEfF7UAV-1">
          <mxGeometry width="50" height="50" relative="1" as="geometry">
            <mxPoint x="450" y="360" as="sourcePoint" />
            <mxPoint x="500" y="310" as="targetPoint" />
          </mxGeometry>
        </mxCell>
        <mxCell id="MektMNyVy06ucEfF7UAV-87" value="rxd" style="text;html=1;align=center;verticalAlign=middle;resizable=0;points=[];autosize=1;strokeColor=none;fillColor=none;" vertex="1" parent="1">
          <mxGeometry x="450" y="115" width="40" height="30" as="geometry" />
        </mxCell>
      </root>
    </mxGraphModel>
  </diagram>
</mxfile>
